# xmcd
#
# Track frame offsets:
#	150
#	18915
#	34748
#	55497
#	70843
#	86871
#	107532
#	130711
#	150516
#	172718
#	191415
#	204528
#	220120
#
# Disc length: 3080 seconds
#
# Revision: 1
# Processed by: cddbd v1.5.2PL0 Copyright (c) Steve Scherf et al.
# Submitted via: audiograbber 1.83.01
#
DISCID=a50c060d
DTITLE=Geri Verdi - Lipstrick and Powder 
DYEAR=1994
DGENRE=Blues
TTITLE0=Pearl
TTITLE1=Mainline
TTITLE2=Two Birds
TTITLE3=Lipstick and Powder
TTITLE4=Out On A Limb
TTITLE5=Rumor
TTITLE6=Johnnie Walker
TTITLE7=Last Call
TTITLE8=Travellin' Light
TTITLE9=Nine Lives
TTITLE10=Blue Lady (Billie's Song)
TTITLE11=Scarlet Moon
TTITLE12=Vacation
EXTD=
EXTT0=
EXTT1=
EXTT2=
EXTT3=
EXTT4=
EXTT5=
EXTT6=
EXTT7=
EXTT8=
EXTT9=
EXTT10=
EXTT11=
EXTT12=
PLAYORDER=
